<svg width="1080" height="1080" xmlns="http://www.w3.org/2000/svg" preserveAspectRatio="xMidYMid meet" version="1.0">

 <g fill="#2d3b64">
  <title>Layer 1</title>
  <path id="svg_2" d="m459.9587,10.27818c0.4,1 16.3,45.3 35.3,98.4c19,53.1 36.5,102.1 39,109c2.5,6.9 6,16.8 7.8,22c1.8,5.2 8,22.5 13.8,38.5c5.7,15.9 11.2,31.5 12.2,34.5c1.7,5.2 3.5,8.6 3.5,6.4c0,-2.3 27.8,-138.6 28.4,-139.1c0.5,-0.6 23.6,4.3 24.4,5.2c0.2,0.2 -1.3,7.7 -3.3,16.7c-2,8.9 -4,18.3 -4.5,20.8c-3.2,18.2 -15.5,66 -24,93c-2.7,8.5 -6.5,21.6 -8.5,29c-2,7.4 -6.3,22 -9.5,32.5c-3.2,10.4 -8.4,27.8 -11.5,38.5c-14.4,49.7 -26.8,91.6 -27.5,92.8c-0.4,0.9 -7.3,-10.8 -18.5,-31.5c-9.8,-18 -27.4,-50.5 -39.1,-72.1l-21.4,-39.2l0,-154.5c0,-85 -0.2,-154.5 -0.4,-154.5c-0.3,0 -22.6,10.4 -49.8,23.1c-27.1,12.8 -63.7,29.9 -81.3,38.2c-17.6,8.2 -36.3,17 -41.5,19.4c-5.2,2.5 -12.2,5.8 -15.5,7.3c-3.3,1.5 -18.1,8.5 -33,15.5c-14.8,7 -34,16 -42.5,20c-13.4,6.3 -28.3,13.3 -60,28.3c-4.1,1.9 -11.8,5.4 -17,7.8l-9.5,4.3l9,4.2c5,2.2 29.7,13.9 55,25.9c25.3,12 61.5,29.1 80.5,38c19,8.9 44,20.8 55.5,26.3c11.6,5.5 27.5,13 35.5,16.7c14.1,6.6 50.2,23.6 58.8,27.8c2.3,1.1 4.2,1.8 4.2,1.5c0,-0.6 -54.5,-82.3 -70.2,-105.2c-4.3,-6.3 -7.8,-11.7 -7.8,-12.1c0,-0.6 20.4,-15 21.4,-15c0.3,0 6,8 12.8,17.7c12.6,18 23.3,36.4 50.6,86.3c8.3,15.1 34.8,63.3 59,107c24.2,43.7 43.7,79.8 43.3,80.2c-0.3,0.4 -35.9,-9.6 -78.9,-22.1l-78.4,-22.8l-16.6,-16.4c-9.2,-9 -53.1,-52.6 -97.7,-96.9c-44.5,-44.3 -86.2,-85.6 -92.6,-91.8l-11.6,-11.3l-3.6,9.8c-1.9,5.4 -27.4,76.2 -56.7,157.3c-29.2,81.1 -56.7,157.5 -61.2,169.8c-4.4,12.2 -7.8,22.5 -7.5,22.8c0.3,0.3 13.7,-4.2 29.9,-9.9c183,-65.5 276.5,-99 277.5,-99.6c0.6,-0.3 -30,-6.8 -68,-14.4c-38.1,-7.6 -69.5,-14.2 -69.9,-14.6c-1.1,-1 7.4,-13.2 10.9,-15.8c3.5,-2.5 9.4,-4.3 14.1,-4.3c6.4,0 46.8,9 67.2,15c11.3,3.3 31.3,9.2 44.5,12.9c26.6,7.7 53.9,15.6 77.5,22.6c8.5,2.5 35.8,10.5 60.5,17.6c53.9,15.7 50,14.5 52,15.7c1.8,1 6.1,-1.5 -92,52.6l-50,27.6l-153.7,0c-84.6,0 -153.8,0.2 -153.8,0.5c0,0.3 3.8,8.5 8.4,18.3c20.9,44.1 40.7,86.1 48.6,103.2c3.7,8 10.2,21.6 14.4,30.3c4.2,8.7 7.6,16 7.6,16.2c0,0.1 2.7,5.8 5.9,12.6c11.8,24.8 25.5,53.9 35.1,74.4c32.3,69.4 43.3,92.5 43.9,92.5c0.3,-0.1 7,-13.7 14.8,-30.3c15.9,-33.9 104.7,-221.9 117.2,-248.1c4.4,-9.4 7.9,-17.2 7.7,-17.4c-0.2,-0.2 -11.4,7 -24.8,15.9c-13.3,8.9 -39.5,26.3 -58,38.5l-33.8,22.3l-7.5,-10.2c-4.1,-5.5 -7.5,-10.6 -7.5,-11.2c0,-0.5 2.8,-2.7 6.3,-4.8c3.4,-2.1 13.2,-8.3 21.7,-13.7c16.2,-10.5 30.8,-19.2 50,-30.2c12.8,-7.3 14.7,-8.3 34,-18.8c7.4,-4 22.3,-12.1 33,-18c83.6,-46 146.2,-80.1 146.5,-79.8c0.3,0.3 -17.1,60.7 -39,135.8l-6.6,22.5l-108.2,108.2c-59.4,59.5 -107.9,108.4 -107.7,108.6c0.3,0.2 8.2,3.1 17.5,6.5c19.3,6.9 249.7,90.3 305.9,110.7c20.4,7.4 37.1,13.3 37.3,13.1c0.2,-0.2 -19.5,-55.6 -43.7,-123.2c-24.3,-67.6 -49.2,-137 -55.3,-154.1c-8.5,-23.6 -11.4,-30.7 -11.9,-29c-0.4,1.2 -4.8,22 -9.8,46.2c-16,77.5 -18.2,88 -18.9,89.1c-0.4,0.8 -4.1,0.3 -12.5,-1.7c-6.5,-1.5 -12,-2.9 -12.2,-3.1c-0.3,-0.3 1.5,-8.8 8.1,-37.8c8.3,-36.5 16,-64.7 43.2,-158c16.7,-57.5 31.8,-109.2 33.5,-115c1.7,-5.8 3.4,-10.8 3.7,-11.3c0.8,-0.8 2,1.2 35.4,61.8c9.1,16.5 22.7,41.2 30.4,55l13.8,25l0.3,154.6l0.2,154.7l99.3,-46.7c54.5,-25.7 133.1,-62.6 174.4,-82.1c41.4,-19.5 75,-35.7 74.5,-36.1c-0.7,-0.7 -15.6,-7.8 -173.7,-82.4c-44,-20.8 -89.4,-42.2 -100.9,-47.6c-11.5,-5.5 -21.1,-9.7 -21.3,-9.5c-0.2,0.2 12.1,19.2 27.3,42.2c24.6,37.2 46.7,70.8 48.7,74c0.8,1.4 -20.1,16 -21.3,14.8c-3.4,-3.7 -35.5,-54.6 -44.5,-70.8c-6.2,-11 -13,-23.3 -15.3,-27.1c-2.2,-3.9 -25.9,-46.8 -52.7,-95.5c-26.8,-48.7 -49.8,-90.5 -51.2,-92.9l-2.5,-4.4l2.8,0.5c1.6,0.3 37.5,10.7 79.7,23.1l76.9,22.5l74,73.8c40.7,40.7 89.6,89.5 108.6,108.7c19,19.1 34.9,34.4 35.3,34c0.8,-0.8 10.1,-26.5 66.3,-182.8c16.8,-46.8 38.1,-106.2 47.5,-132c9.3,-25.9 16.8,-47.1 16.7,-47.2c-0.1,-0.2 -47.7,16.8 -105.7,37.7c-58,21 -126.9,45.8 -153.1,55.3c-26.3,9.4 -47.4,17.4 -47,17.8c0.6,0.6 115.7,24.9 129.5,27.5c2.1,0.3 4,1.2 4.3,1.8c0.4,1.1 -4,23.4 -4.9,24.2c-0.2,0.3 -16.1,-3 -35.3,-7.1c-35.3,-7.7 -37.1,-8.2 -193.4,-54c-42.1,-12.4 -88.2,-25.5 -89.3,-25.5c-0.7,0 -2.2,-0.6 -3.2,-1.4c-2.3,-1.6 -10.6,3.2 74.3,-43l67.3,-36.6l154.6,0c123.2,0 154.4,-0.3 154,-1.3c-0.5,-1.3 -128.4,-273 -150.6,-320.1c-7,-14.7 -13.1,-26.8 -13.6,-26.8c-1.1,-0.1 -1.6,1 -84.1,176.2c-30.9,65.7 -56.1,119.6 -56,119.8c0.2,0.1 26.5,-17 58.5,-38.2c31.9,-21.2 58.6,-38.3 59.3,-38.1c2,0.8 14.1,20.6 13.2,21.5c-1.1,1 -32.3,20.9 -53.9,34.3c-8.8,5.5 -25.2,14.9 -36.5,21c-19.4,10.4 -172.9,94.6 -191,104.7c-4.7,2.6 -8.6,4.4 -8.8,3.9c-0.2,-0.4 5.5,-20.8 12.7,-45.1c7.1,-24.4 17.3,-59.6 22.6,-78.3l9.7,-34l108.7,-108.8c59.7,-59.8 108.7,-108.9 108.9,-109.1c0.1,-0.2 -5.5,-2.4 -12.5,-4.9c-7,-2.5 -55.3,-19.8 -107.3,-38.5c-52,-18.7 -127.3,-45.8 -167.5,-60.2c-40.1,-14.4 -73.6,-26.5 -74.4,-26.8c-1.1,-0.4 -1.3,-0.1 -0.7,1.4z"/>
 </g>
</svg>